<?xml version="1.0" encoding="utf-8"?>
<!-- Generator: Adobe Illustrator 19.0.0, SVG Export Plug-In . SVG Version: 6.00 Build 0)  -->
<svg version="1.1" id="Layer_1" xmlns="http://www.w3.org/2000/svg" xmlns:xlink="http://www.w3.org/1999/xlink" x="0px" y="0px"
	 viewBox="-105 197 400 400" style="enable-background:new -105 197 400 400;" xml:space="preserve">
<style type="text/css">
	.st0{fill:#FFFFFF;}
</style>
<g id="XMLID_1_">
	<path id="XMLID_7_" class="st0" d="M289.8,379.9c0-0.1-0.1-0.2-0.1-0.2c-0.3-0.3-0.6-0.7-0.7-1.1l-1.4-1.4c-0.8-1-1.7-1.8-2.7-2.7
		l-87.6-87.6l0,0l-22.6-22.6l-0.1,0.1c-0.5-0.5-1.1-0.9-1.6-1.4l0,0c-5-3.9-11.4-6.1-18.2-6.1c-6.8,0-13.1,2.3-18.2,6.1
		c-2.1,1.6-4.1,3.6-5.7,5.7l0,0L112.4,287l-17.5,17.5l-19.7,19.7l-49.5,49.5l0,0c-1.6,1.3-3,2.7-4.3,4.3l0,0
		c-4.2,5.2-6.8,11.8-6.8,19c0,10.4,5.3,19.5,13.3,24.9c4.8,3.2,10.5,5.1,16.7,5.1c7.8,0,14.9-3,20.3-7.9c0.6-0.6,1.3-1.2,1.8-1.8
		l87.8-87.8l67.6,67.6l-90.2,90.2l0.1,0.1c-4.7,5.3-7.6,12.3-7.6,19.9c0,7.5,2.7,14.3,7.2,19.5l0,0c1,1.2,2.1,2.2,3.2,3.2l0,0
		c5.3,4.5,12.1,7.2,19.5,7.2c7.2,0,13.8-2.6,19-6.8c0.3-0.4,0.7-0.6,1.2-0.8c0.2-0.3,0.5-0.5,0.9-0.7l89.2-89.2l-0.2-0.2l19.6-19.6
		c0,0,0,0,0.1,0c1.3-1.1,2.4-2.2,3.5-3.5c0,0,0,0,0-0.1c4.4-5.2,7.1-12,7.1-19.3c0-6.5-2-12.4-5.5-17.3L289.8,379.9z"/>
	<path id="XMLID_9_" class="st0" d="M57.7,487.2c-0.1-0.2-0.2-0.3-0.3-0.5l-47.1-47.1L-15,414.4l-17.5-17.5L55.4,309l0.1-0.1
		c0.6-0.6,1.3-1.2,1.8-1.8l0.1-0.1l0.3-0.3l0,0c4.7-5.3,7.5-12.2,7.5-19.8c0-6.8-2.3-13.1-6.1-18.2c-1.6-2.1-3.6-4.1-5.7-5.7
		c-5.1-3.9-11.4-6.1-18.2-6.1c-7.6,0-14.5,2.8-19.8,7.5l-0.1-0.1L-96.9,376.4c-5,5.4-8.1,12.6-8.1,20.5s3.1,15.1,8.1,20.5l1.4,1.4
		l38,38l69.8,69.8l0,0c1,1.2,2.1,2.3,3.3,3.3l0,0l0,0l0.3,0.3c0.1,0,0.1,0.1,0.2,0.1l0,0l0.1,0.1l0,0c5.2,4.2,11.8,6.7,18.9,6.7
		c7.5,0,14.3-2.7,19.5-7.2c1.2-1,2.3-2.1,3.2-3.2c4.5-5.2,7.2-12.1,7.2-19.5C65.2,499.5,62.4,492.6,57.7,487.2L57.7,487.2z"/>
</g>
</svg>
